# xmcd CD database file
#
# Track frame offsets:
#	150
#	15845
#	37595
#	53600
#	76530
#	93257
#	113484
#	149893
#	172400
#	186616
#
# Disc length: 2593 seconds
#
# Revision: 1
# Processed by: cddbd v1.4PL0 Copyright (c) Steve Scherf et al.
# Submitted via: CDex 1.40Beta9
#
DISCID=750a1f0a
DTITLE=DARREN JACK - Don't Mess Up A Good Thing
DYEAR=2002
DGENRE=Blues
TTITLE0=You're No Good(3.29)~
TTITLE1=To Know You Is To Love You(4.50)~
TTITLE2=Breakaway(3.33)~
TTITLE3=Don't Mess Up A Good Thing(5.05)~
TTITLE4=I Gotta Know(3.43)~
TTITLE5=Without You(4.29)~
TTITLE6=Cat Trak(8.05)~
TTITLE7=Backtrackin(5.00)~
TTITLE8=Felle It Or Me(3.09)~
TTITLE9=One Mornin'(1.44)~
EXTD=YEAR: 2002 ID3G: 0
EXTT0=
EXTT1=
EXTT2=
EXTT3=
EXTT4=
EXTT5=
EXTT6=
EXTT7=
EXTT8=
EXTT9=
PLAYORDER=
